# xmcd CD database file
#
# Track frame offsets:
#	150
#	10865
#	23020
#	39395
#
# Disc length: 711 seconds
#
# Revision: 2
# Processed by: cddbd v1.5.2PL0 Copyright (c) Steve Scherf et al.
# Submitted via: CDex 1.51
#
DISCID=2002c504
DTITLE=陳珊妮 - 粉紅色
DYEAR=2008
DGENRE=Pop
TTITLE0=抒情歌曲
TTITLE1=粉紅色
TTITLE2=寂寞的詩
TTITLE3=當傾斜的傾斜重覆的重覆
EXTD=YEAR: 2008
EXTT0=
EXTT1=
EXTT2=
EXTT3=
PLAYORDER=
